 <svg version="1.0" xmlns="http://www.w3.org/2000/svg"  width="300.000000pt" height="75.000000pt" viewBox="0 0 300.000000 75.000000"  preserveAspectRatio="xMidYMid meet">  <g transform="translate(0.000000,75.000000) scale(0.100000,-0.100000)" fill="#000000" stroke="none"> <path d="M264 706 c-63 -15 -112 -45 -157 -96 -77 -84 -69 -192 18 -268 35 -32 36 -32 18 -59 -10 -16 -23 -32 -30 -36 -22 -14 -14 -27 15 -27 15 0 46 11 69 24 40 23 47 24 109 14 191 -32 374 79 374 227 0 161 -208 271 -416 221z m62 -21 c-4 -12 3 -15 35 -15 22 0 38 4 35 9 -3 4 -17 6 -31 3 -15 -2 -25 0 -25 7 0 13 66 11 89 -4 8 -4 30 -9 49 -11 50 -5 108 -37 104 -59 -3 -12 1 -16 12 -12 25 10 57 -54 59 -115 1 -60 -26 -118 -55 -118 -10 0 -18 -6 -18 -14 0 -22 -63 -56 -104 -56 -21 0 -35 -4 -32 -8 2 -4 -7 -8 -22 -9 -24 -2 -25 -1 -7 7 13 6 -15 8 -80 7 -86 -1 -104 -4 -134 -24 -43 -29 -57 -29 -37 -1 9 12 16 27 16 33 0 5 -22 34 -49 63 -47 50 -49 55 -49 110 0 31 5 66 10 77 16 33 100 106 115 101 8 -3 12 -2 9 3 -7 11 41 24 54 16 6 -4 20 1 32 9 28 20 32 20 24 1z m64 -406 c0 -11 -50 -12 -69 0 -9 6 1 9 28 9 22 0 41 -3 41 -9z"></path> <path d="M717 553 c19 -47 13 -125 -16 -180 -42 -84 -156 -152 -271 -163 l-65 -5 34 -19 c80 -43 210 -59 289 -36 29 8 40 5 70 -15 21 -13 54 -27 75 -30 32 -6 36 -5 31 9 -3 9 -9 16 -13 16 -5 0 -16 15 -26 34 l-19 34 34 28 c115 97 80 262 -72 340 -63 32 -70 31 -51 -13z m48 -13 c-3 -5 0 -10 9 -10 21 0 74 -47 93 -84 19 -37 18 -116 -2 -155 -8 -16 -29 -41 -48 -58 -28 -25 -32 -33 -25 -53 5 -14 5 -27 -2 -34 -7 -7 -10 -6 -10 4 0 7 -3 10 -7 7 -3 -4 -15 0 -25 10 -15 14 -24 14 -57 5 -49 -15 -116 -15 -181 0 l-51 12 70 25 c88 33 175 105 203 170 11 26 20 72 21 108 1 35 6 63 10 63 5 0 5 -4 2 -10z"></path> <path d="M635 240 c-3 -5 1 -10 10 -10 9 0 13 5 10 10 -3 6 -8 10 -10 10 -2 0 -7 -4 -10 -10z"></path> <path d="M1195 573 c-74 -15 -112 -59 -100 -114 8 -33 49 -64 100 -74 62 -12 85 -26 85 -51 0 -56 -109 -52 -132 4 -1 5 -18 12 -35 15 -38 7 -42 -6 -18 -52 39 -76 188 -82 239 -9 24 34 20 81 -9 108 -13 12 -52 30 -86 40 -69 18 -91 39 -70 64 24 29 101 14 101 -19 0 -10 11 -15 35 -15 37 0 44 14 25 51 -18 32 -92 61 -135 52z m-50 -113 c3 -5 2 -10 -4 -10 -5 0 -13 5 -16 10 -3 6 -2 10 4 10 5 0 13 -4 16 -10z m50 -40 c3 -6 -1 -7 -9 -4 -18 7 -21 14 -7 14 6 0 13 -4 16 -10z m62 -16 c-3 -3 -12 -4 -19 -1 -8 3 -5 6 6 6 11 1 17 -2 13 -5z"></path> <path d="M1695 558 c-26 -15 -35 -28 -35 -55 0 -16 -6 -23 -20 -23 -13 0 -20 -7 -20 -20 0 -14 7 -20 21 -20 19 0 20 -5 17 -95 l-3 -95 33 0 32 0 0 95 c0 95 0 95 25 95 18 0 25 5 25 20 0 15 -7 20 -26 20 -33 0 -30 33 4 38 16 3 22 10 22 28 0 20 -5 24 -27 24 -16 0 -37 -6 -48 -12z m5 -104 c0 -8 -4 -14 -10 -14 -5 0 -10 9 -10 21 0 11 5 17 10 14 6 -3 10 -13 10 -21z"></path> <path d="M2180 410 l0 -160 35 0 35 0 0 58 0 59 53 -4 c62 -5 94 10 120 55 17 29 18 39 8 73 -18 61 -56 79 -163 79 l-88 0 0 -160z m45 63 c-1 -29 4 -57 13 -70 9 -15 10 -23 3 -23 -6 0 -11 -7 -11 -15 0 -8 -4 -15 -9 -15 -4 0 -8 38 -9 85 0 47 3 85 8 85 4 0 6 -21 5 -47z m133 25 c6 -6 12 -21 12 -33 0 -30 -16 -41 -72 -48 l-48 -7 0 53 0 52 48 -4 c26 -2 53 -8 60 -13z m32 -82 c0 -2 -7 -7 -16 -10 -8 -3 -12 -2 -9 4 6 10 25 14 25 6z m-164 -91 c-4 -24 -16 -30 -16 -7 0 12 4 22 9 22 5 0 8 -7 7 -15z"></path> <path d="M2730 410 l0 -160 35 0 35 0 0 160 0 160 -35 0 -35 0 0 -160z"></path> <path d="M1406 455 c-14 -13 -26 -29 -26 -35 0 -17 67 -12 74 6 10 25 70 15 74 -13 3 -18 -3 -23 -35 -28 -83 -14 -94 -17 -103 -35 -40 -75 47 -144 119 -94 14 10 26 13 30 7 3 -6 18 -12 32 -15 l25 -5 -2 100 c-4 126 -11 137 -99 137 -52 0 -66 -4 -89 -25z m164 -93 c0 -7 -4 -10 -10 -7 -5 3 -10 16 -10 28 0 18 2 19 10 7 5 -8 10 -21 10 -28z m-40 -30 c0 -34 -36 -58 -69 -47 -35 11 -23 47 19 62 49 17 50 16 50 -15z m40 -17 c0 -8 -4 -15 -10 -15 -5 0 -7 7 -4 15 4 8 8 15 10 15 2 0 4 -7 4 -15z"></path> <path d="M1820 452 c-84 -84 -21 -222 94 -208 35 4 96 47 96 68 0 14 -57 9 -70 -7 -17 -21 -63 -19 -83 3 -32 35 -21 42 68 42 85 0 85 0 85 26 0 62 -45 103 -113 104 -40 0 -53 -5 -77 -28z m112 -29 c31 -28 21 -38 -37 -38 -60 0 -71 13 -33 39 29 20 47 20 70 -1z"></path> <path d="M2495 455 c-14 -13 -25 -29 -25 -35 0 -18 59 -11 79 9 21 21 59 18 68 -6 9 -22 -11 -35 -69 -44 -84 -13 -113 -65 -63 -114 28 -29 79 -33 113 -9 12 8 22 10 22 5 0 -6 15 -11 33 -11 l32 0 -3 100 c-4 120 -12 130 -105 130 -48 0 -62 -4 -82 -25z m125 -118 c0 -13 -9 -32 -20 -42 -33 -30 -92 -1 -70 34 6 11 46 25 83 30 4 1 7 -10 7 -22z"></path> </g> </svg> 